<svg width="676" height="1159" viewBox="0 0 676 1159" fill="none" xmlns="http://www.w3.org/2000/svg">
<path d="M507 1158.86C493.649 1158.86 482.857 1148.07 482.857 1134.71V24.1429C482.857 10.7919 493.649 0 507 0C520.351 0 531.142 10.7919 531.142 24.1429V1134.71C531.142 1148.07 520.351 1158.86 507 1158.86Z" fill="#FBFBFB"/>
<path d="M651.857 748.428H507C493.649 748.428 482.857 737.637 482.857 724.286C482.857 710.935 493.649 700.143 507 700.143H627.618C624.407 294.495 541.066 56.4943 506.566 48.2374C493.239 48.2374 482.64 37.4697 482.64 24.1187C482.64 10.7919 493.649 0 507 0C608.111 0 676 374.504 676 724.286C676 737.637 665.208 748.428 651.857 748.428Z" fill="#FBFBFB"/>
<path d="M169 434.571C75.8327 434.571 0 358.739 0 265.571V24.1429C0 10.7919 10.7919 0 24.1429 0C37.4939 0 48.2857 10.7919 48.2857 24.1429V265.571C48.2857 332.133 102.438 386.286 169 386.286C235.562 386.286 289.714 332.133 289.714 265.571V24.1429C289.714 10.7919 300.506 0 313.857 0C327.208 0 338 10.7919 338 24.1429V265.571C338 358.739 262.167 434.571 169 434.571Z" fill="#FBFBFB"/>
<path d="M169 1158.86C155.649 1158.86 144.857 1148.07 144.857 1134.71V24.1429C144.857 10.7919 155.649 0 169 0C182.351 0 193.143 10.7919 193.143 24.1429V1134.71C193.143 1148.07 182.351 1158.86 169 1158.86Z" fill="#FBFBFB"/>
</svg>
