<svg width="165" height="165" viewBox="0 0 165 165" fill="none" xmlns="http://www.w3.org/2000/svg">
<path fill-rule="evenodd" clip-rule="evenodd" d="M154.688 36.1247C154.688 32.0152 153.053 28.0706 150.145 25.1677C147.242 22.2595 143.297 20.625 139.188 20.625C111.432 20.625 53.5683 20.625 25.8122 20.625C21.7027 20.625 17.7581 22.2595 14.8552 25.1677C11.947 28.0706 10.3125 32.0152 10.3125 36.1247C10.3125 47.8242 10.3125 61.875 10.3125 61.875H154.688C154.688 61.875 154.688 47.8242 154.688 36.1247Z" fill="#50B647"/>
<path fill-rule="evenodd" clip-rule="evenodd" d="M82.5 20.625H139.188C143.297 20.625 147.242 22.2595 150.145 25.1677C153.053 28.0706 154.688 32.0152 154.688 36.1247C154.688 47.8242 154.688 61.875 154.688 61.875H82.5V20.625Z" fill="#329829"/>
<path fill-rule="evenodd" clip-rule="evenodd" d="M154.688 61.875H10.3022C10.3022 61.875 10.3022 112.819 10.3022 139.219C10.3074 147.763 17.2322 154.688 25.771 154.688C53.5271 154.688 111.468 154.688 139.219 154.688C147.763 154.688 154.688 147.763 154.688 139.219C154.688 112.819 154.688 61.875 154.688 61.875Z" fill="#F2F2F2"/>
<path fill-rule="evenodd" clip-rule="evenodd" d="M154.688 61.875V139.219C154.688 147.763 147.763 154.688 139.219 154.688H82.5V61.875H154.688Z" fill="#E6E6E6"/>
<path fill-rule="evenodd" clip-rule="evenodd" d="M67.0312 41.25H46.4062C46.2361 41.2397 46.0711 41.2397 45.9009 41.2242C43.8952 41.0283 42.0698 39.5588 41.4717 37.5891C41.3738 37.2694 41.3067 36.9342 41.2758 36.5991C41.2603 36.4289 41.2603 36.2639 41.25 36.0938V25.7761C41.2552 21.6408 42.9877 17.5313 45.9783 14.6489C48.7575 11.9677 52.5422 10.3898 56.4197 10.3177C56.5383 10.3125 56.6517 10.3125 56.7703 10.3125C60.7716 10.3331 64.7006 11.9419 67.5572 14.7469C70.4808 17.6137 72.1823 21.6769 72.1875 25.7761V36.0938C72.1772 36.2639 72.1772 36.4289 72.1617 36.5991C71.9658 38.6048 70.4963 40.4302 68.5266 41.0283C68.2069 41.1262 67.8717 41.1933 67.5366 41.2242C67.3664 41.2397 67.2014 41.2397 67.0312 41.25Z" fill="#4D4D4D"/>
<path fill-rule="evenodd" clip-rule="evenodd" d="M118.594 41.25H97.9688C97.7986 41.2397 97.6336 41.2397 97.4634 41.2242C95.4577 41.0283 93.6323 39.5588 93.0342 37.5891C92.9362 37.2694 92.8692 36.9342 92.8383 36.5991C92.8228 36.4289 92.8228 36.2639 92.8125 36.0938V25.7761C92.8177 21.615 94.5759 17.4745 97.6078 14.587C100.284 12.0347 103.909 10.493 107.59 10.328C107.838 10.3177 108.08 10.3125 108.333 10.3125C113.051 10.3331 117.645 12.5916 120.532 16.3402C122.605 19.0214 123.745 22.373 123.75 25.7761V36.0938C123.74 36.2639 123.74 36.4289 123.724 36.5991C123.528 38.6048 122.059 40.4302 120.089 41.0283C119.769 41.1262 119.434 41.1933 119.099 41.2242C118.929 41.2397 118.764 41.2397 118.594 41.25Z" fill="#262626"/>
<path d="M51.5654 123.75V89.7909L50.0546 91.3017L49.6782 91.642C49.5441 91.74 49.4152 91.8483 49.276 91.9411C47.7343 92.9723 45.6357 93.0858 43.9805 92.2041C42.7894 91.5647 41.8665 90.4458 41.4746 89.1516C41.0363 87.7027 41.2786 86.0578 42.1243 84.7894C42.3718 84.4181 42.4594 84.3408 42.7636 84.0108L53.0761 73.6983C53.4061 73.3941 53.4835 73.3064 53.8547 73.0589C54.4168 72.6825 55.051 72.4195 55.7161 72.2855C56.1596 72.1978 56.273 72.2081 56.7216 72.1875C56.8918 72.1978 57.0568 72.203 57.2269 72.2133C57.3919 72.2391 57.5621 72.2545 57.7271 72.2855C59.5472 72.6464 61.1096 74.0489 61.6561 75.8484C61.7541 76.1681 61.8211 76.5033 61.8521 76.8384C61.8675 77.0086 61.8675 77.1736 61.8779 77.3438V123.75H67.0341C67.2043 123.76 67.3693 123.765 67.5394 123.776C67.7044 123.802 67.8746 123.817 68.0396 123.848C70.0247 124.245 71.6902 125.88 72.0924 127.901C72.4224 129.556 71.8758 131.361 70.6796 132.552C69.9629 133.268 69.0347 133.763 68.0396 133.965C67.5961 134.052 67.4827 134.042 67.0341 134.062H46.4091C46.239 134.052 46.074 134.052 45.9038 134.037C44.0579 133.856 42.3615 132.614 41.6447 130.881C40.8713 129.015 41.3044 126.715 42.7636 125.261C43.4804 124.544 44.4085 124.049 45.4036 123.848C45.8471 123.76 45.9605 123.771 46.4091 123.75H51.5654Z" fill="#4D4D4D"/>
<path d="M103.125 123.75V89.7909L101.614 91.3017L101.238 91.642C101.104 91.74 100.975 91.8483 100.836 91.9411C99.1547 93.0652 96.8189 93.0858 95.1019 91.9411C93.6994 91.0027 92.8125 89.3423 92.8125 87.6562C92.8125 86.6456 93.1167 85.635 93.6839 84.7894C93.9314 84.4181 94.0191 84.3408 94.3233 84.0108L104.636 73.6983C104.966 73.3941 105.043 73.3064 105.414 73.0589C105.976 72.6825 106.611 72.4195 107.276 72.2855C107.719 72.1978 107.833 72.2081 108.281 72.1875C108.451 72.1978 108.616 72.203 108.787 72.2133C108.952 72.2391 109.122 72.2545 109.287 72.2855C111.102 72.6464 112.669 74.0489 113.216 75.8484C113.314 76.1681 113.381 76.5033 113.412 76.8384C113.427 77.0086 113.427 77.1736 113.438 77.3438V123.75H118.594C118.764 123.76 118.929 123.765 119.099 123.776C119.264 123.802 119.434 123.817 119.599 123.848C121.584 124.245 123.25 125.88 123.652 127.901C123.982 129.556 123.435 131.361 122.239 132.552C121.523 133.268 120.594 133.763 119.599 133.965C119.156 134.052 119.042 134.042 118.594 134.062H97.9688C97.7986 134.052 97.6336 134.052 97.4634 134.037C95.6227 133.856 93.9211 132.614 93.2044 130.881C92.4309 129.015 92.8641 126.715 94.3233 125.261C95.04 124.544 95.9681 124.049 96.9633 123.848C97.4067 123.76 97.5202 123.771 97.9688 123.75H103.125V123.75Z" fill="#262626"/>
</svg>
