<svg width="32" height="31" viewBox="0 0 32 31" fill="none" xmlns="http://www.w3.org/2000/svg">
<path d="M24.258 20.576L19.2578 15.5758L24.0308 10.8028C24.6164 10.2171 24.5938 9.24453 23.9802 8.63096L22.8691 7.51979C22.2555 6.90622 21.2829 6.8836 20.6972 7.46929L15.9243 12.2423L10.924 7.242C10.3104 6.62843 9.33788 6.60581 8.75219 7.19149L7.69153 8.25215C7.10585 8.83784 7.12847 9.81041 7.74204 10.424L12.7423 15.4242L7.96933 20.1972C7.38364 20.7829 7.40626 21.7555 8.01983 22.369L9.131 23.4802C9.74457 24.0938 10.7171 24.1164 11.3028 23.5307L16.0758 18.7577L21.0761 23.758C21.6896 24.3716 22.6622 24.3942 23.2479 23.8085L24.3085 22.7478C24.8942 22.1622 24.8716 21.1896 24.258 20.576Z" fill="#FF5959"/>
</svg>
