<svg width="164" height="125" viewBox="0 0 164 125" fill="none" xmlns="http://www.w3.org/2000/svg">
<path d="M164 67.8621V107.448C164 110.559 161.455 113.104 158.345 113.104H101.793C98.6825 113.104 96.1377 110.559 96.1377 107.448V39.5863C96.1377 36.4759 98.6825 33.9311 101.793 33.9311H135.724C137.42 33.9311 139.06 34.7228 140.135 36.0801L162.756 64.2994C163.028 64.6805 163.3 65.1141 163.522 65.5496C163.539 65.5827 163.547 65.6566 163.547 65.6566V65.6566V65.6566V65.6566C163.547 65.6566 163.556 65.7305 163.572 65.764C163.892 66.4284 164 67.1453 164 67.8621Z" fill="#F0F0F0"/>
<path d="M107.448 0H5.65517C2.54483 0 0 2.54483 0 5.65517V107.448C0 110.559 2.54483 113.103 5.65517 113.103H28.2759H50.8966H107.448H113.103V107.448V5.65517C113.103 2.54483 110.559 0 107.448 0Z" fill="#50B647"/>
<path d="M73.5172 22.6206C73.5172 25.731 70.9724 28.2758 67.8621 28.2758H0V16.9655H67.8621C70.9724 16.9655 73.5172 19.5103 73.5172 22.6206Z" fill="#329829"/>
<path d="M50.8966 45.2414C50.8966 48.3518 48.3517 50.8966 45.2414 50.8966H0V39.5862H45.2414C48.3517 39.5862 50.8966 42.1311 50.8966 45.2414Z" fill="#329829"/>
<path d="M152.689 107.448C152.689 116.779 145.055 124.414 135.724 124.414C126.393 124.414 118.758 116.779 118.758 107.448C118.758 98.1172 126.393 90.4827 135.724 90.4827C145.055 90.4827 152.689 98.1172 152.689 107.448Z" fill="#4D4D4D"/>
<path d="M56.5516 107.448C56.5516 116.779 48.9172 124.414 39.5861 124.414C30.2551 124.414 22.6206 116.779 22.6206 107.448C22.6206 98.1172 30.2551 90.4827 39.5861 90.4827C48.9172 90.4827 56.5516 98.1172 56.5516 107.448Z" fill="#4D4D4D"/>
<path d="M164 67.8621V67.8621C164 67.8933 163.975 67.9186 163.943 67.9186L140.052 67.8788C134.536 67.8696 130.069 63.3951 130.069 57.8788V39.5863C130.069 36.463 132.601 33.9311 135.724 33.9311V33.9311C137.421 33.9311 139.061 34.7228 140.135 36.0801L162.756 64.2994C163.028 64.6805 163.3 65.1141 163.522 65.5496C163.539 65.5827 163.547 65.6566 163.547 65.6566V65.6566V65.6566V65.6566C163.547 65.6566 163.556 65.7304 163.572 65.764C163.892 66.4284 164 67.1453 164 67.8621Z" fill="#DCDCDC"/>
</svg>
