<svg width="23" height="25" viewBox="0 0 23 25" fill="none" xmlns="http://www.w3.org/2000/svg">
<path d="M17.2917 24H5.79167C5.54154 24 5.3331 23.8074 5.31394 23.5577L4.38771 11.5158C2.48302 11.2944 1 9.67148 1 7.70833C1 5.5909 2.76237 3.80265 4.84867 3.80265C5.28471 3.80265 5.7126 3.88746 6.11175 4.05181C6.7845 2.20223 8.87702 1 11.5417 1C14.0448 1 15.7957 2.012 16.8796 4.09062C17.3046 3.90087 17.7651 3.80217 18.2347 3.80217C20.321 3.80265 22.0833 5.5909 22.0833 7.70833C22.0833 9.67148 20.6003 11.2944 18.6956 11.5158L17.7694 23.5577C17.7502 23.8074 17.5418 24 17.2917 24ZM6.23537 23.0417H16.8475L17.7718 11.0256C17.7914 10.776 17.9999 10.5833 18.25 10.5833C19.8356 10.5833 21.125 9.2939 21.125 7.70833C21.125 5.97135 19.6017 4.76098 18.2347 4.76098C17.7641 4.76098 17.3247 4.89227 16.9294 5.15246C16.812 5.2296 16.6654 5.25165 16.5307 5.2114C16.3956 5.17163 16.2849 5.07483 16.2279 4.94546C15.3261 2.90756 13.8374 1.95833 11.5417 1.95833C9.0706 1.95833 7.2009 3.11552 6.88896 4.83765C6.86021 4.99577 6.75431 5.12898 6.60625 5.19223C6.45867 5.25644 6.28856 5.2411 6.1544 5.15246C5.75908 4.89227 5.31969 4.76098 4.84915 4.76098C3.4816 4.76098 1.95833 5.97135 1.95833 7.70833C1.95833 9.2939 3.24777 10.5833 4.83333 10.5833C5.08346 10.5833 5.2919 10.776 5.31106 11.0256L6.23537 23.0417Z" fill="black" stroke="black"/>
<path d="M17.5912 20.1667H5.49223C5.22773 20.1667 5.01306 19.9525 5.01306 19.6875C5.01306 19.4226 5.22773 19.2084 5.49223 19.2084H17.5912C17.8557 19.2084 18.0704 19.4226 18.0704 19.6875C18.0704 19.9525 17.8557 20.1667 17.5912 20.1667Z" fill="black" stroke="black"/>
<path d="M9.14585 20.1667C8.88135 20.1667 8.66669 19.9525 8.66669 19.6875V15.8542C8.66669 15.5892 8.88135 15.375 9.14585 15.375C9.41035 15.375 9.62502 15.5892 9.62502 15.8542V19.6875C9.62502 19.9525 9.41035 20.1667 9.14585 20.1667Z" fill="black" stroke="black"/>
<path d="M11.5417 20.1666C11.2772 20.1666 11.0625 19.9524 11.0625 19.6875V14.8958C11.0625 14.6308 11.2772 14.4166 11.5417 14.4166C11.8062 14.4166 12.0208 14.6308 12.0208 14.8958V19.6875C12.0208 19.9524 11.8062 20.1666 11.5417 20.1666Z" fill="black" stroke="black"/>
<path d="M13.9375 20.1667C13.673 20.1667 13.4584 19.9525 13.4584 19.6875V15.8542C13.4584 15.5892 13.673 15.375 13.9375 15.375C14.202 15.375 14.4167 15.5892 14.4167 15.8542V19.6875C14.4167 19.9525 14.202 20.1667 13.9375 20.1667Z" fill="black" stroke="black"/>
</svg>
