<svg width="96" height="97" viewBox="0 0 96 97" fill="none" xmlns="http://www.w3.org/2000/svg">
<circle cx="48.3173" cy="38.3446" r="34.9884" fill="#FAFAFA"/>
<path d="M48 0.5C21.3818 0.5 0 21.8818 0 48.5C0 75.1182 21.3818 96.5 48 96.5C74.6182 96.5 96 75.1182 96 48.5C96 21.8818 74.6182 0.5 48 0.5ZM77.2364 56.3546C76.8 58.1 75.0545 58.9727 73.3091 58.5364L48.8727 53.7364C48 53.7364 47.1273 52.8637 46.2546 52.4273C44.5091 51.5546 43.6364 50.2455 43.6364 48.5L44.5091 13.5909C44.5091 11.4091 46.2545 10.1 48 10.1C49.7455 10.1 51.4909 11.8455 51.4909 13.5909L51.9273 43.7L74.6182 51.5546C76.8 51.9909 77.6727 54.1727 77.2364 56.3546Z" fill="#50B647"/>
</svg>
