<svg width="258" height="240" viewBox="0 0 258 240" fill="none" xmlns="http://www.w3.org/2000/svg">
<path d="M130.004 129.052L44.6842 82.2316C44.334 82.0375 43.9394 81.9377 43.5391 81.942C43.1387 81.9463 42.7464 82.0547 42.4005 82.2563C42.0546 82.458 41.7671 82.7461 41.5662 83.0924C41.3652 83.4387 41.2577 83.8312 41.2542 84.2316C40.8442 102.232 39.2542 177.782 41.3442 180.232C44.6542 184.112 126.424 231.392 130.014 231.392C133.604 231.392 214.544 182.632 218.684 180.232C222.344 178.122 219.544 102.032 218.834 84.1516C218.816 83.7584 218.698 83.3762 218.492 83.041C218.286 82.7058 217.997 82.4286 217.654 82.2356C217.311 82.0426 216.925 81.94 216.531 81.9375C216.137 81.9351 215.75 82.0328 215.404 82.2216L130.004 129.052Z" fill="#191919"/>
<path d="M130.003 239.361C127.533 239.361 125.193 239.361 81.5634 214.161C38.6434 189.371 36.1734 186.481 35.2434 185.391C32.8634 182.591 31.9634 181.541 32.3534 137.941C32.5434 116.471 33.0434 93.0714 33.2534 84.0114C33.2932 82.2394 33.7892 80.5076 34.6934 78.9832C35.5976 77.4588 36.8795 76.1932 38.4154 75.3087C39.9513 74.4241 41.6893 73.9505 43.4617 73.9334C45.234 73.9164 46.9808 74.3565 48.5334 75.2114L130.013 119.921L211.553 75.1814C213.097 74.3359 214.832 73.8994 216.592 73.9134C218.352 73.9274 220.08 74.3914 221.61 75.2613C223.14 76.1312 224.423 77.378 225.335 78.8833C226.248 80.3886 226.76 82.1022 226.823 83.8614C227.183 92.9514 228.053 116.431 228.393 138.011C228.583 150.251 228.563 160.011 228.393 167.121C228.013 179.281 227.393 184.491 222.733 187.191C222.063 187.581 219.333 189.191 215.233 191.661C135.213 239.361 133.363 239.361 130.003 239.361V239.361ZM48.7334 175.771C60.6634 183.891 116.893 216.381 129.993 222.771C137.993 218.771 163.883 203.671 206.993 177.911L211.913 174.971C212.913 165.811 212.683 134.211 211.203 93.6714L133.853 136.061C132.674 136.709 131.349 137.049 130.003 137.049C128.657 137.049 127.333 136.709 126.153 136.061L49.0434 93.7514C48.1634 135.491 48.0334 166.751 48.7334 175.771V175.771Z" fill="#191919"/>
<path d="M41.3359 78.3515L130.006 31.0615L218.676 78.3515L130.006 127.002L41.3359 78.3515Z" fill="white"/>
<path d="M131.256 27.9414V123.881L42.5859 75.2214L131.256 27.9414Z" fill="#E6E6E6"/>
<path d="M130.005 129.052L41.3351 80.3916C41.3351 80.3916 38.9551 177.392 41.3351 180.202C44.6451 184.082 126.415 231.362 130.005 231.362C133.595 231.362 214.535 182.602 218.675 180.202C222.815 177.802 218.675 80.3916 218.675 80.3916L130.005 129.052Z" fill="#EBEBEB"/>
<path d="M130.006 129.052C129.006 131.112 128.006 231.862 130.006 231.362C136.356 229.802 215.326 184.432 219.006 179.612C220.586 177.522 221.396 81.6818 218.696 80.3918C215.996 79.1018 131.036 126.992 130.006 129.052Z" fill="#969696"/>
<path d="M218.153 74.861C222.743 72.331 247.613 58.531 246.303 57.771C244.993 57.011 158.633 11.831 156.453 11.171C154.453 10.561 131.973 25.271 128.323 27.671C124.563 25.061 97.5033 6.43101 94.4233 8.15101C91.1133 9.95101 11.0333 54.631 8.16329 56.291C5.52329 57.861 34.9533 72.651 39.5033 74.931C35.2533 77.081 9.81329 89.521 11.3833 90.421C12.9533 91.321 95.2033 139.861 99.6033 140.341C102.433 140.651 125.403 126.101 128.423 124.101C131.803 126.341 159.423 144.581 162.183 143.021L249.313 93.021C250.923 92.141 223.393 77.581 218.153 74.861V74.861ZM128.423 123.721L40.6733 74.911L128.263 28.191L216.573 74.771L128.423 123.721Z" fill="#191919"/>
<path d="M161.873 151.172C157.873 151.172 152.403 148.492 141.403 141.842C136.613 138.942 131.763 135.842 128.403 133.642C125.533 135.442 121.763 137.782 118.073 139.972C104.663 147.862 101.733 148.622 98.7334 148.302C96.1734 148.022 92.9934 147.682 9.36343 98.5216L7.36343 97.3516C6.09038 96.6175 5.04038 95.5518 4.32538 94.268C3.61038 92.9842 3.25718 91.5303 3.30343 90.0616C3.47343 84.5416 7.91343 82.1916 17.6434 77.0616C19.0234 76.3316 20.4634 75.5816 21.8934 74.8516L18.3134 72.8616C4.05343 65.1016 0.163429 62.2216 0.00342856 56.8016C-0.0397341 55.3002 0.325326 53.8152 1.05969 52.505C1.79406 51.1947 2.87021 50.1083 4.17343 49.3616C6.37343 48.0916 50.9534 23.2116 87.9634 2.56157L90.5334 1.13157C95.6934 -1.74843 101.533 0.811574 115.373 9.47157C120.183 12.4716 124.983 15.6716 128.433 18.0116C153.333 1.81157 155.223 2.39157 158.803 3.49157C162.223 4.49157 249.603 50.4016 250.313 50.8216C251.541 51.542 252.56 52.5704 253.268 53.8051C253.977 55.0398 254.351 56.438 254.353 57.8616C254.303 63.2916 250.833 65.3016 237.943 72.7916L234.733 74.6516L239.503 77.2816C253.833 85.2816 257.223 87.3516 257.323 92.7916C257.351 94.2461 256.988 95.6814 256.272 96.9478C255.557 98.2142 254.514 99.2654 253.253 99.9916L174.103 145.372L166.103 149.952C164.829 150.731 163.367 151.153 161.873 151.172ZM143.623 124.412C151.173 129.152 157.623 132.902 160.993 134.492L166.203 131.492L234.103 92.5616C229.793 90.1316 224.163 87.0516 217.403 83.4616L143.623 124.412ZM26.9134 90.2616C71.1634 116.192 93.0934 128.472 99.8534 131.802C102.763 130.382 108.003 127.342 113.033 124.292L39.9334 83.6616C34.4234 86.4116 30.1734 88.5716 26.9134 90.2616ZM57.4034 75.0616L128.403 114.542L199.733 74.9616L128.253 37.2616L57.4034 75.0616ZM22.9534 57.1816C27.5334 59.7516 33.5034 62.9216 39.9534 66.1816L113.233 27.1016C107.573 23.2711 101.704 19.759 95.6534 16.5816C55.0234 39.2516 33.8134 51.1016 22.9434 57.1816H22.9534ZM143.653 27.2716L217.333 66.1316C222.333 63.3516 226.913 60.7416 230.673 58.5416C209.733 47.5416 167.393 25.5416 156.083 19.8316C153.463 21.2416 149.003 23.8616 143.653 27.2716Z" fill="#191919"/>
<path d="M219.156 74.8613C219.236 73.5613 247.616 58.5313 246.306 57.7713C244.996 57.0113 158.636 11.8313 156.456 11.1713C154.456 10.5613 128.916 27.6013 128.326 27.6713C127.736 27.7413 97.496 6.39131 94.426 8.11131C91.116 9.95131 11.036 54.6313 8.16605 56.2913C5.52605 57.8613 39.436 74.0913 39.506 74.9313C39.576 75.7713 9.81605 89.5213 11.376 90.4213C12.936 91.3213 95.206 139.861 99.606 140.341C102.436 140.651 127.526 124.101 128.426 124.101C129.326 124.101 159.426 144.581 162.186 143.021L249.316 93.0213C250.926 92.1413 219.076 76.1313 219.156 74.8613V74.8613ZM128.426 123.721C127.426 123.641 40.7061 75.5813 40.6861 74.9413C40.6661 74.3013 127.686 28.3113 128.276 28.2213C128.866 28.1313 216.596 73.5513 216.586 74.8013C216.576 76.0513 129.436 123.771 128.426 123.691V123.721Z" fill="white"/>
<path d="M129.405 129.531C128.735 146.701 128.405 207.201 130.015 231.361Z" fill="#D32920"/>
<path d="M130.006 235.361C128.99 235.364 128.012 234.979 127.269 234.287C126.526 233.594 126.074 232.645 126.006 231.631C124.366 206.951 124.736 146.411 125.396 129.381C125.416 128.856 125.54 128.34 125.76 127.862C125.979 127.385 126.291 126.955 126.677 126.598C127.063 126.241 127.515 125.964 128.008 125.781C128.501 125.599 129.026 125.516 129.551 125.536C130.076 125.557 130.592 125.68 131.07 125.9C131.547 126.12 131.977 126.432 132.334 126.817C132.691 127.203 132.968 127.656 133.151 128.149C133.333 128.642 133.416 129.166 133.396 129.691C132.756 146.131 132.396 207.121 133.996 231.101C134.031 231.626 133.963 232.152 133.794 232.651C133.626 233.149 133.361 233.609 133.014 234.005C132.668 234.4 132.247 234.724 131.775 234.957C131.304 235.189 130.791 235.327 130.266 235.361H130.006Z" fill="#191919"/>
</svg>
