<svg width="38" height="38" viewBox="0 0 38 38" fill="none" xmlns="http://www.w3.org/2000/svg">
<path d="M24.5417 38C24.1039 38 23.75 37.6461 23.75 37.2083V0.791667C23.75 0.353875 24.1039 0 24.5417 0C24.9795 0 25.3333 0.353875 25.3333 0.791667V37.2083C25.3333 37.6461 24.9795 38 24.5417 38Z" fill="black"/>
<path d="M29.2916 24.5417H24.5416C24.1038 24.5417 23.7499 24.1878 23.7499 23.75C23.7499 23.3122 24.1038 22.9583 24.5416 22.9583H28.4968C28.3915 9.65675 25.6586 1.8525 24.5273 1.58175C24.0903 1.58175 23.7428 1.22867 23.7428 0.790875C23.7428 0.353875 24.1038 0 24.5416 0C27.8571 0 30.0833 12.2803 30.0833 23.75C30.0833 24.1878 29.7294 24.5417 29.2916 24.5417Z" fill="black"/>
<path d="M13.4583 14.25C10.4033 14.25 7.91663 11.7634 7.91663 8.70833V0.791667C7.91663 0.353875 8.2705 0 8.70829 0C9.14608 0 9.49996 0.353875 9.49996 0.791667V8.70833C9.49996 10.891 11.2757 12.6667 13.4583 12.6667C15.6409 12.6667 17.4166 10.891 17.4166 8.70833V0.791667C17.4166 0.353875 17.7705 0 18.2083 0C18.6461 0 19 0.353875 19 0.791667V8.70833C19 11.7634 16.5133 14.25 13.4583 14.25Z" fill="black"/>
<path d="M13.4583 38C13.0205 38 12.6666 37.6461 12.6666 37.2083V0.791667C12.6666 0.353875 13.0205 0 13.4583 0C13.8961 0 14.25 0.353875 14.25 0.791667V37.2083C14.25 37.6461 13.8961 38 13.4583 38Z" fill="black"/>
</svg>
