<svg width="64" height="64" viewBox="0 0 64 64" fill="none" xmlns="http://www.w3.org/2000/svg">
<path d="M51.8001 50.4H12.3001C10.0001 50.4 8.1001 48.5 8.1001 46.2V18C8.1001 15.7 10.0001 13.8 12.3001 13.8H51.8001C54.1001 13.8 56.0001 15.7 56.0001 18V46.2C56.0001 48.5 54.1001 50.4 51.8001 50.4ZM12.2001 16.5C11.4001 16.5 10.8001 17.1 10.8001 17.9V46.1C10.8001 46.9 11.4001 47.5 12.2001 47.5H51.7001C52.5001 47.5 53.1001 46.9 53.1001 46.1V17.9C53.1001 17.1 52.5001 16.5 51.7001 16.5H12.2001Z" fill="black"/>
<path d="M39.1001 30.5C36.0001 30.5 33.6001 28 33.6001 25C33.6001 22 36.1001 19.5 39.1001 19.5C42.1001 19.5 44.6001 22 44.6001 25C44.6001 28 42.1001 30.5 39.1001 30.5ZM39.1001 22C37.5001 22 36.2001 23.3 36.2001 24.9C36.2001 26.5 37.5001 27.8 39.1001 27.8C40.7001 27.8 42.0001 26.5 42.0001 24.9C42.0001 23.3 40.7001 22 39.1001 22Z" fill="black"/>
<path d="M46.6 49.9L23.5 28.2L10.3 40.4L8.5 38.5L23.5 24.6L48.4 48L46.6 49.9Z" fill="black"/>
<path d="M53.8 42.7L46.1 36.5L39.7 41.8L38 39.7L46.1 33.1L55.4 40.7L53.8 42.7Z" fill="black"/>
</svg>
